<svg height="512pt" viewBox="0 -117 512 512" width="512pt" xmlns="http://www.w3.org/2000/svg"><path d="m496.011719 216.8125v-125.152344c0-28.859375-4.539063-49.148437-14.285157-63.859375-12.230468-18.445312-32.964843-27.800781-61.640624-27.800781h-127.25c-32.34375 0-64.878907 5.335938-99.46875 16.3125-45.964844 14.578125-87.804688 41.78125-117.816407 76.597656-4.527343 5.25-8.75 10.640625-12.691406 16.148438-.039063.054687-.082031.109375-.121094.167968-23.023437 32.242188-35.980469 68.714844-37.867187 106.835938h-3.257813c-11.917969.003906-21.613281 9.699219-21.613281 21.617188v19.671874c0 11.921876 9.695312 21.617188 21.613281 21.617188h468.773438c11.917969 0 21.613281-9.695312 21.613281-21.617188v-19.671874c0-9.972657-6.789062-18.382813-15.988281-20.867188zm.992187 40.539062c0 3.652344-2.96875 6.621094-6.617187 6.621094h-468.773438c-3.648437 0-6.617187-2.96875-6.617187-6.621094v-19.671874c0-3.648438 2.96875-6.617188 6.617187-6.617188h225.527344c4.140625 0 7.5-3.359375 7.5-7.5s-3.359375-7.496094-7.5-7.496094h-207.253906c.507812-9.65625 1.746093-19.015625 3.667969-28.066406h20.921874c4.140626 0 7.496094-3.355469 7.496094-7.496094s-3.355468-7.5-7.496094-7.5h-17.042968c1.976562-6.488281 4.296875-12.804687 6.9375-18.933594h22.066406c4.140625 0 7.496094-3.359374 7.496094-7.5 0-4.140624-3.355469-7.496093-7.496094-7.496093h-14.792969c3.402344-6.289063 7.140625-12.359375 11.175781-18.199219h23.375c4.140626 0 7.496094-3.359375 7.496094-7.5s-3.355468-7.496094-7.496094-7.496094h-11.972656c30.242188-36.257812 72.132813-62.097656 113.679688-75.273437 33.101562-10.503907 64.152344-15.609375 94.933594-15.609375h127.25c23.660156 0 39.734374 6.898437 49.140624 21.089844 8.042969 12.136718 11.789063 29.796874 11.789063 55.574218v124.40625h-194.726563c-4.140624 0-7.5 3.355469-7.5 7.496094s3.359376 7.5 7.5 7.5h204.097657c3.648437 0 6.617187 2.96875 6.617187 6.617188zm0 0"/><path d="m423.542969 159.597656h-11.140625c-12.902344 0-23.398438 10.484375-23.398438 23.371094s10.496094 23.375 23.398438 23.375h11.140625c12.886719 0 23.371093-10.488281 23.371093-23.375s-10.484374-23.371094-23.371093-23.371094zm0 31.75h-11.140625c-4.632813 0-8.402344-3.757812-8.402344-8.378906s3.769531-8.375 8.402344-8.375h11.140625c4.621093 0 8.378906 3.753906 8.378906 8.375s-3.761719 8.378906-8.378906 8.378906zm0 0"/><path d="m423.203125 147.292969c10.652344 0 19.320313-10.027344 19.320313-22.351563v-57.546875c0-10.308593-7.222657-22.351562-27.570313-22.351562h-114.207031c-45.988282 0-72.503906 15.386719-86.648438 28.296875-15.707031 14.332031-25.082031 33.621094-25.082031 51.601562 0 12.324219 8.667969 22.351563 19.320313 22.351563zm-45.9375-14.996094h-100.628906v-10.019531c0-5.542969 4.496093-10.050782 10.019531-10.050782h80.5625c5.542969 0 10.046875 4.507813 10.046875 10.050782zm-173.253906-7.355469c0-10.683594 5.304687-26.9375 20.195312-40.527344 17.476563-15.945312 43.941407-24.375 76.539063-24.375h114.207031c5.734375 0 12.570313 1.277344 12.570313 7.355469v57.546875c0 4.492188-2.558594 7.355469-4.320313 7.355469h-30.941406v-10.019531c0-13.808594-11.234375-25.046875-25.042969-25.046875h-80.5625c-13.792969 0-25.015625 11.238281-25.015625 25.046875v10.019531h-53.304687c-1.765626 0-4.324219-2.863281-4.324219-7.355469zm0 0"/></svg>