<?xml version="1.0" encoding="iso-8859-1"?>
<!-- Generator: Adobe Illustrator 19.0.0, SVG Export Plug-In . SVG Version: 6.00 Build 0)  -->
<svg version="1.1" id="Capa_1" xmlns="http://www.w3.org/2000/svg" xmlns:xlink="http://www.w3.org/1999/xlink" x="0px" y="0px"
	 viewBox="0 0 383.2 383.2" style="enable-background:new 0 0 383.2 383.2;" xml:space="preserve">
<g>
	<g>
		<path d="M338.8,0H44.4C36.4,0,30,6.4,30,14.4v355.2c0.8,8,7.2,13.6,14.4,13.6h294.4c8,0,14.4-6.4,14.4-14.4V14.4
			C353.2,6.4,346.8,0,338.8,0z M340.4,369.6c0,0.8-0.8,1.6-1.6,1.6H44.4c-0.8,0-2.4-0.8-2.4-2.4V94.4h298.4V369.6z M341.2,83.2H42.8
			V14.4c0-0.8,0.8-1.6,1.6-1.6h294.4c0.8,0,2.4,0.8,2.4,2.4V83.2z"/>
	</g>
</g>
<g>
	<g>
		<path d="M191.6,132.8C133.2,132.8,86,180,86,238.4C86,296.8,133.2,344,191.6,344c58.4,0,105.6-47.2,105.6-105.6
			C297.2,180,250,132.8,191.6,132.8z M191.6,332c-51.2,0-93.6-41.6-93.6-93.6c0-51.2,41.6-93.6,93.6-93.6s93.6,41.6,93.6,93.6
			S242.8,332,191.6,332z"/>
	</g>
</g>
<g>
	<g>
		<path d="M191.6,175.2c-35.2,0-63.2,28-63.2,63.2c0,35.2,28,63.2,63.2,63.2s63.2-28,63.2-63.2S226.8,175.2,191.6,175.2z
			 M191.6,289.6c-28,0-51.2-23.2-51.2-51.2s23.2-51.2,51.2-51.2c20,0,37.6,11.2,45.6,28c-11.2,2.4-20,12.8-20,24.8
			c0,11.2,8,20.8,18.4,24C226.8,279.2,210.8,289.6,191.6,289.6z M230,240c0-7.2,5.6-12,12-12.8c0.8,4,1.6,7.2,1.6,11.2
			c-0.8,5.6-1.6,10.4-2.4,14.4C234.8,252,230,246.4,230,240z"/>
	</g>
</g>
<g>
	<g>
		<path d="M310,26.4h-66.4c-8,0-14.4,6.4-14.4,14.4v10.4c0.8,8,6.4,14.4,14.4,14.4H310c8,0,14.4-6.4,14.4-14.4V40.8
			C324.4,32.8,318,26.4,310,26.4z M313.2,52c0,0.8-0.8,2.4-2.4,2.4h-66.4c-0.8,0-2.4-0.8-2.4-2.4V41.6c0-0.8,0.8-2.4,2.4-2.4h66.4
			c0.8,0,2.4,0.8,2.4,2.4V52z"/>
	</g>
</g>
<g>
	<g>
		<path d="M190.8,21.6c-13.6,0-24.8,11.2-24.8,24.8c0,13.6,11.2,24.8,24.8,24.8s24.8-11.2,24.8-24.8
			C215.6,32.8,204.4,21.6,190.8,21.6z M190.8,60c-7.2,0-12.8-5.6-12.8-12.8s5.6-12.8,12.8-12.8s12.8,5.6,12.8,12.8S198,60,190.8,60z
			"/>
	</g>
</g>
<g>
</g>
<g>
</g>
<g>
</g>
<g>
</g>
<g>
</g>
<g>
</g>
<g>
</g>
<g>
</g>
<g>
</g>
<g>
</g>
<g>
</g>
<g>
</g>
<g>
</g>
<g>
</g>
<g>
</g>
</svg>
