<svg id="Capa_1" enable-background="new 0 0 512.412 512.412" height="512" viewBox="0 0 512.412 512.412" width="512" xmlns="http://www.w3.org/2000/svg"><path d="m100.557 97.505h15.698c4.143 0 7.5-3.357 7.5-7.5s-3.357-7.5-7.5-7.5h-15.698c-4.143 0-7.5 3.357-7.5 7.5s3.357 7.5 7.5 7.5z"/><path d="m100.557 224.505h15.698c4.143 0 7.5-3.357 7.5-7.5s-3.357-7.5-7.5-7.5h-15.698c-4.143 0-7.5 3.357-7.5 7.5s3.357 7.5 7.5 7.5z"/><path d="m100.557 351.505h15.698c4.143 0 7.5-3.357 7.5-7.5s-3.357-7.5-7.5-7.5h-15.698c-4.143 0-7.5 3.357-7.5 7.5s3.357 7.5 7.5 7.5z"/><path d="m298.707 240.204c4.143 0 7.5-3.357 7.5-7.5v-15.698c0-4.143-3.357-7.5-7.5-7.5s-7.5 3.357-7.5 7.5v15.698c0 4.142 3.357 7.5 7.5 7.5z"/><path d="m439.223 217.005v15.698c0 4.143 3.357 7.5 7.5 7.5s7.5-3.357 7.5-7.5v-15.698c0-4.143-3.357-7.5-7.5-7.5s-7.5 3.358-7.5 7.5z"/><path d="m498.911.501h-332.205c-4.143 0-7.5 3.357-7.5 7.5s3.357 7.5 7.5 7.5h330.706v28.445h-482.412v-28.445h116.873c4.143 0 7.5-3.357 7.5-7.5s-3.357-7.5-7.5-7.5h-118.372c-7.444 0-13.501 6.057-13.501 13.501v31.443c0 7.444 6.057 13.501 13.501 13.501h6.404v119.529 127 119.355c0 7.021 4.809 12.924 11.302 14.632v14.898c0 8.351 6.794 15.145 15.145 15.145h6.207v27.5c0 8.219 6.687 14.905 14.904 14.905h17.985c6.803 0 12.625-4.488 14.384-10.997l12.322-31.408h123.052c4.143 0 7.5-3.357 7.5-7.5s-3.357-7.5-7.5-7.5h-188.854c-.08 0-.145-.064-.145-.145v-14.385h421v14.385c0 .08-.064.145-.145.145h-197.189c-4.143 0-7.5 3.357-7.5 7.5s3.357 7.5 7.5 7.5h131.388l12.321 31.407c1.758 6.509 7.58 10.998 14.384 10.998h17.985c8.219 0 14.905-6.687 14.905-14.905v-27.5h6.206c8.351 0 15.145-6.794 15.145-15.145v-14.976c6.34-1.809 11-7.642 11-14.554v-166.825c0-4.143-3.357-7.5-7.5-7.5s-7.5 3.357-7.5 7.5v166.826c0 .08-.064.145-.145.145h-3.355-129.515v-366h133.015v164.404c0 4.143 3.357 7.5 7.5 7.5s7.5-3.357 7.5-7.5v-164.433h5.704c7.444 0 13.501-6.057 13.501-13.501v-31.444c0-7.444-6.057-13.501-13.501-13.501zm-431.352 469.004h28.481l-10.348 26.378c-.131.335-.237.678-.319 1.027h-17.814zm114.346-44.529h-143.198-3.657c-.08 0-.145-.064-.145-.145v-111.855h147zm0-127h-147v-112h147zm0-127h-147v-112h147zm148.016 254h-133.016v-119.5-127-119.5h133.016zm115.935 71.935h-17.814c-.082-.35-.188-.692-.32-1.027l-10.348-26.378h28.482z"/></svg>