<svg height="512pt" viewBox="-48 0 512 512" width="512pt" xmlns="http://www.w3.org/2000/svg"><path d="m392.273438 0h-368.742188c-12.976562 0-23.53125 10.558594-23.53125 23.53125v432.871094c0 10.355468 6.722656 19.160156 16.03125 22.300781v25.796875c0 4.140625 3.359375 7.5 7.5 7.5h368.742188c4.140624 0 7.5-3.359375 7.5-7.5v-25.796875c9.308593-3.140625 16.03125-11.945313 16.03125-22.300781v-432.871094c0-12.972656-10.554688-23.53125-23.53125-23.53125zm-368.742188 15h368.742188c4.707031 0 8.53125 3.828125 8.53125 8.53125v8.53125h-24.5625c-4.140626 0-7.5 3.359375-7.5 7.5 0 4.144531 3.359374 7.5 7.5 7.5h24.5625v81.195312h-385.804688v-81.195312h329.175781c4.140625 0 7.5-3.355469 7.5-7.5 0-4.140625-3.359375-7.5-7.5-7.5h-329.175781v-8.53125c0-4.703125 3.828125-8.53125 8.53125-8.53125zm329.179688 136.789062c0 4.707032-3.828126 8.535157-8.53125 8.535157h-272.550782c-4.703125 0-8.53125-3.828125-8.53125-8.535157 0-4.699218 3.824219-8.523437 8.519532-8.53125h272.570312c4.699219.007813 8.523438 3.832032 8.523438 8.53125zm-273.582032 23.535157h257.550782v152.820312c0 4.707031-3.828126 8.53125-8.535157 8.53125h-240.484375c-4.703125 0-8.53125-3.828125-8.53125-8.53125zm-48.097656 321.675781v-17.0625h353.742188v17.0625zm361.242188-32.0625h-368.742188c-4.703125 0-8.53125-3.828125-8.53125-8.535156v-72.660156h16.550781c4.140625 0 7.5-3.359376 7.5-7.5 0-4.140626-3.359375-7.5-7.5-7.5h-16.550781v-225.484376h34.703125c-1.03125 2.648438-1.605469 5.523438-1.605469 8.53125 0 10.355469 6.722656 19.160157 16.03125 22.300782v154.054687c0 12.976563 10.554688 23.53125 23.53125 23.53125h240.484375c12.976563 0 23.53125-10.554687 23.53125-23.53125v-154.054687c9.308594-3.140625 16.035157-11.945313 16.035157-22.300782 0-3.007812-.574219-5.882812-1.609376-8.53125h34.703126v225.484376h-337.195313c-4.140625 0-7.5 3.355468-7.5 7.5 0 4.140624 3.359375 7.5 7.5 7.5h337.199219v72.660156c-.003906 4.707031-3.828125 8.535156-8.535156 8.535156zm0 0"/><path d="m167.820312 64.128906c-12.972656 0-23.53125 10.558594-23.53125 23.53125 0 12.976563 10.558594 23.53125 23.53125 23.53125 12.976563 0 23.535157-10.554687 23.535157-23.53125 0-12.972656-10.558594-23.53125-23.535157-23.53125zm0 32.0625c-4.703124 0-8.53125-3.828125-8.53125-8.53125s3.828126-8.53125 8.53125-8.53125c4.707032 0 8.535157 3.828125 8.535157 8.53125s-3.828125 8.53125-8.535157 8.53125zm0 0"/><path d="m87.660156 64.128906c-12.976562 0-23.53125 10.558594-23.53125 23.53125 0 12.976563 10.554688 23.53125 23.53125 23.53125 12.976563 0 23.53125-10.554687 23.53125-23.53125 0-12.972656-10.554687-23.53125-23.53125-23.53125zm0 32.0625c-4.703125 0-8.53125-3.828125-8.53125-8.53125s3.828125-8.53125 8.53125-8.53125c4.707032 0 8.53125 3.828125 8.53125 8.53125s-3.824218 8.53125-8.53125 8.53125zm0 0"/><path d="m328.144531 64.128906c-12.976562 0-23.53125 10.558594-23.53125 23.53125 0 12.976563 10.558594 23.53125 23.53125 23.53125 12.976563 0 23.535157-10.554687 23.535157-23.53125 0-12.972656-10.558594-23.53125-23.535157-23.53125zm0 32.0625c-4.703125 0-8.53125-3.828125-8.53125-8.53125s3.828125-8.53125 8.53125-8.53125c4.707031 0 8.535157 3.828125 8.535157 8.53125s-3.828126 8.53125-8.535157 8.53125zm0 0"/><path d="m247.984375 64.128906c-12.976563 0-23.53125 10.558594-23.53125 23.53125 0 12.976563 10.554687 23.53125 23.53125 23.53125s23.53125-10.554687 23.53125-23.53125c0-12.972656-10.554687-23.53125-23.53125-23.53125zm0 32.0625c-4.707031 0-8.53125-3.828125-8.53125-8.53125s3.828125-8.53125 8.53125-8.53125 8.53125 3.828125 8.53125 8.53125-3.828125 8.53125-8.53125 8.53125zm0 0"/><path d="m344.175781 400.808594h-272.546875c-4.140625 0-7.5 3.355468-7.5 7.5 0 4.140625 3.359375 7.5 7.5 7.5h272.550782c4.140624 0 7.5-3.359375 7.5-7.5 0-4.144532-3.359376-7.5-7.503907-7.5zm0 0"/></svg>