<svg height="480pt" viewBox="0 0 480 480" width="480pt" xmlns="http://www.w3.org/2000/svg"><path d="m456 176h-8v-8c0-13.253906-10.746094-24-24-24h-16v-104c-.027344-22.082031-17.917969-39.9726562-40-40h-24c-16.082031-.0078125-30.59375 9.644531-36.800781 24.480469-20.03125 2.386719-35.136719 19.34375-35.199219 39.519531v16c0 4.417969 3.582031 8 8 8h8c0 13.253906 10.746094 24 24 24s24-10.746094 24-24h8c4.417969 0 8-3.582031 8-8v-16c-.058594-17.226562-11.164062-32.476562-27.542969-37.816406 4.46875-6.371094 11.757813-10.171875 19.542969-10.183594h24c13.253906 0 24 10.746094 24 24v104h-16c-13.253906 0-24 10.746094-24 24v8h-177.441406l-14.71875-73.601562c-.761719-3.722657-4.039063-6.398438-7.839844-6.398438h-96c-.238281.042969-.472656.09375-.703125.160156-.773437.050782-1.535156.222656-2.257813.503906-.300781.128907-.597656.273438-.886718.433594-.671875.378906-1.285156.859375-1.816406 1.421875-.160157.160157-.375.234375-.519532.410157-.144531.175781-.097656.230468-.167968.328124-.472657.660157-.839844 1.386719-1.089844 2.15625-.121094.261719-.226563.53125-.320313.800782 0 .074218-.070312.128906-.078125.199218l-14.71875 73.585938h-9.441406c-13.253906 0-24 10.746094-24 24v256c0 13.253906 10.746094 24 24 24s24-10.746094 24-24v-168h384v168c0 13.253906 10.746094 24 24 24s24-10.746094 24-24v-256c0-13.253906-10.746094-24-24-24zm-144-80c-4.417969 0-8-3.582031-8-8h16c0 4.417969-3.582031 8-8 8zm24-32v8h-48v-8c0-13.253906 10.746094-24 24-24s24 10.746094 24 24zm32 104c0-4.417969 3.582031-8 8-8h48c4.417969 0 8 3.582031 8 8v8h-64zm-222.550781-56 12.796875 64h-79.695313l-12.796875-64zm-90.402344 37.34375 6.707031 26.65625h-11.992187zm-7.046875 122.65625v-32h384v32zm416 184c0 4.417969-3.582031 8-8 8s-8-3.582031-8-8v-224c0-4.417969-3.582031-8-8-8h-400c-4.417969 0-8 3.582031-8 8v224c0 4.417969-3.582031 8-8 8s-8-3.582031-8-8v-256c0-4.417969 3.582031-8 8-8h432c4.417969 0 8 3.582031 8 8zm0 0"/><path d="m256 248h-32c-4.417969 0-8 3.582031-8 8s3.582031 8 8 8h32c4.417969 0 8-3.582031 8-8s-3.582031-8-8-8zm0 0"/></svg>